<?xml version="1.0" encoding="UTF-8" standalone="no"?>
<!-- Created with Inkscape (http://www.inkscape.org/) -->

<svg
   version="1.1"
   id="svg1"
   width="481.5351"
   height="248.77681"
   viewBox="0 0 481.5351 248.77681"
   sodipodi:docname="pig.svg"
   inkscape:version="1.3.2 (1:1.3.2+202311252150+091e20ef0f)"
   xmlns:inkscape="http://www.inkscape.org/namespaces/inkscape"
   xmlns:sodipodi="http://sodipodi.sourceforge.net/DTD/sodipodi-0.dtd"
   xmlns="http://www.w3.org/2000/svg"
   xmlns:svg="http://www.w3.org/2000/svg">
  <defs
     id="defs1" />
  <sodipodi:namedview
     id="namedview1"
     pagecolor="#ffffff"
     bordercolor="#000000"
     borderopacity="0.25"
     inkscape:showpageshadow="2"
     inkscape:pageopacity="0.0"
     inkscape:pagecheckerboard="0"
     inkscape:deskcolor="#d1d1d1"
     inkscape:zoom="2.2075472"
     inkscape:cx="247.78632"
     inkscape:cy="125.25214"
     inkscape:window-width="1920"
     inkscape:window-height="1017"
     inkscape:window-x="0"
     inkscape:window-y="0"
     inkscape:window-maximized="1"
     inkscape:current-layer="g1" />
  <g
     inkscape:groupmode="layer"
     inkscape:label="Image"
     id="g1"
     transform="translate(-1.2620906,-60.412176)">
    <path
       style="fill:#000000"
       d="m 360.7972,308.78948 c 0,-0.21973 1.62364,-2.80723 3.60809,-5.75 11.85235,-17.57603 17.60653,-36.4875 15.36719,-50.50523 -1.06377,-6.65892 -4.36512,-14.7796 -7.80262,-19.1929 l -1.82856,-2.34764 -5.62489,3.5982 c -11.25993,7.20289 -28.88336,13.65287 -47.21921,17.28171 -12.53484,2.48077 -45.9555,2.45276 -59.5,-0.0499 -15.79322,-2.91811 -35.89616,-8.49329 -47,-13.03458 -1.29492,-0.52959 -1.51211,1.60918 -1.58859,15.64316 -0.10897,19.99489 -1.9253,31.08415 -7.61744,46.50664 l -1.93767,5.25005 h -12.90581 -12.9058 l 4.45719,-4.10849 c 12.59421,-11.60895 13.76778,-29.15385 3.404,-50.88985 l -4.05204,-8.49833 -2.9538,3.49833 c -5.20225,6.16128 -15.74241,22.39077 -18.20595,28.0331 -1.31243,3.00588 -3.40854,9.96524 -4.65804,15.46524 -1.2495,5.5 -2.90533,11.2375 -3.67962,12.75 l -1.4078,2.75 H 133.69396 120.6421 l 4.63241,-5.25 c 5.38204,-6.09956 10.84667,-16.92296 12.44862,-24.65607 0.61594,-2.97333 1.35572,-9.49833 1.64395,-14.5 0.69852,-12.12125 3.11671,-26.37337 5.94385,-35.03142 1.26838,-3.88438 2.18443,-7.18726 2.03565,-7.33973 -0.14877,-0.15247 -1.45431,1.27485 -2.90119,3.17181 -3.37869,4.42969 -15.87601,12.79119 -23.34453,15.61898 -12.68463,4.80276 -22.295029,6.08393 -44.303669,5.90618 -14.003528,-0.1131 -21.986114,0.23929 -25.189521,1.11198 -4.105495,1.11844 -5.008398,1.06861 -7.25,-0.40015 -1.408263,-0.92273 -2.560479,-2.51495 -2.560479,-3.53827 0,-2.1939 5.399593,-7.25415 12.75,-11.94872 2.8875,-1.8442 5.25,-3.52753 5.25,-3.74074 0,-0.74191 -8.526403,2.97237 -12.5,5.44526 -2.2,1.36913 -6.57178,4.94168 -9.715067,7.93901 -6.909091,6.58826 -11.655301,7.70949 -18.884935,4.46131 -9.2040399,-4.13525 -19.13920894,-14.32382 -17.1872089,-17.62557 0.432966,-0.73235 4.837211,-4.69205 9.7872109,-8.79933 9.761122,-8.09933 20.927759,-19.68768 25.82508,-26.80037 6.453924,-9.37344 9.749627,-22.54945 6.462484,-25.8366 -0.66684,-0.66684 -1.498909,-4.3378 -1.849041,-8.15769 -0.722477,-7.88211 -3.208556,-12.03975 -10.248713,-17.13961 -5.260379,-3.8106 -7.674943,-7.51743 -7.683221,-11.79525 -0.0062,-3.2062 0.09772,-3.31059 1.780009,-1.78814 2.879064,2.60552 8.820982,4.69145 13.431283,4.71509 4.982499,0.0256 12.122999,2.97784 13.604305,5.62479 0.565295,1.01012 1.203253,1.61534 1.417686,1.34492 0.214433,-0.27042 3.036819,-4.54167 6.271968,-9.49167 14.522424,-22.2203 40.302499,-40.962571 69.442419,-50.485061 9.91209,-3.23912 23.99531,-6.3357 36.04574,-7.92565 7.82202,-1.03204 54.2765,-0.74528 59.50001,0.3673 1.65,0.35143 7.275,1.5557 12.5,2.67615 6.94556,1.4894 14.74332,2.17322 29,2.54311 22.65808,0.58786 32.69609,-0.59096 51.5,-6.04796 30.84959,-8.95273 55.53311,-9.76331 78,-2.56146 17.05411,5.46677 29.53197,15.17931 39.74087,30.93357 6.07268,9.371301 8.85254,12.333831 13.07423,13.933391 3.94402,1.49435 7.32707,1.33025 11.28377,-0.54733 3.67414,-1.74349 4.46347,-3.37273 1.65113,-3.40802 -0.9625,-0.0121 -3.65842,-0.88825 -5.99093,-1.94705 -7.67872,-3.4856 -9.45249,-12.564841 -3.59842,-18.418911 2.07093,-2.07094 3.58035,-2.61208 7.28588,-2.61208 3.87793,0 5.21365,0.5278 7.84412,3.09959 2.96142,2.89532 5.19087,8.10093 5.20377,12.15041 0.009,2.816991 1.56527,2.057111 5.92059,-2.89079 2.24675,-2.55243 4.08499,-4.30574 4.08499,-3.89623 0,2.88782 -8.07474,15.318591 -12.69142,19.537981 -6.21953,5.6843 -10.69082,7.35172 -18.37474,6.85225 l -5.43384,-0.35321 -0.035,17.5 c -0.0393,19.6627 -1.31949,26.23994 -8.05989,41.40843 -6.08474,13.69301 -8.55993,21.59888 -9.13251,29.16966 -0.6849,9.05597 0.78617,15.16501 5.28323,21.94012 4.5054,6.78767 4.43944,8.85193 -0.99005,30.98179 -5.10915,20.82419 -8.68396,32.546 -12.5052,41.00458 -4.29624,9.5101 -4.2674,9.49542 -18.6598,9.49542 h -12.45636 l 4.8732,-6.35807 c 14.70581,-19.18672 20.06925,-39.50291 14.76135,-55.91458 -1.02685,-3.17496 -2.05268,-5.58697 -2.27963,-5.36002 -0.22695,0.22694 -1.03567,4.84964 -1.79717,10.27265 -4.07978,29.05404 -11.27929,49.50482 -19.48463,55.34753 -2.42383,1.72592 -4.40624,2.01249 -13.92191,2.01249 -6.1026,0 -11.09563,-0.17978 -11.09563,-0.39951 z M 466.28521,100.22676 c 1.08361,-3.414141 -4.19273,-11.037771 -7.63927,-11.037771 -2.42297,0 -5.18307,4.37125 -4.37256,6.92495 1.63284,5.144611 10.6991,8.248881 12.01183,4.112821 z"
       id="path1" />
  </g>
</svg>
